<?xml version="1.0" encoding="UTF-8" standalone="no"?>
<!-- Created with Inkscape (http://www.inkscape.org/) -->

<svg
   width="300"
   height="300"
   viewBox="0 0 300 300"
   version="1.1"
   id="svg5"
   sodipodi:docname="vestibular logo.svg"
   inkscape:version="1.2.2 (732a01da63, 2022-12-09)"
   inkscape:export-filename="vestibular logo draft 3.png"
   inkscape:export-xdpi="96"
   inkscape:export-ydpi="96"
   xmlns:inkscape="http://www.inkscape.org/namespaces/inkscape"
   xmlns:sodipodi="http://sodipodi.sourceforge.net/DTD/sodipodi-0.dtd"
   xmlns="http://www.w3.org/2000/svg"
   xmlns:svg="http://www.w3.org/2000/svg">
  <sodipodi:namedview
     id="namedview7"
     pagecolor="#505050"
     bordercolor="#ffffff"
     borderopacity="1"
     inkscape:showpageshadow="0"
     inkscape:pageopacity="0"
     inkscape:pagecheckerboard="1"
     inkscape:deskcolor="#505050"
     inkscape:document-units="px"
     showgrid="false"
     showguides="true"
     inkscape:zoom="2.4240761"
     inkscape:cx="163.15494"
     inkscape:cy="155.72943"
     inkscape:window-width="1920"
     inkscape:window-height="991"
     inkscape:window-x="-9"
     inkscape:window-y="-9"
     inkscape:window-maximized="1"
     inkscape:current-layer="layer1" />
  <defs
     id="defs2" />
  <g
     inkscape:label="Layer 1"
     inkscape:groupmode="layer"
     id="layer1">
    <path
       id="ellipse20703"
       style="fill:#98cb2b;fill-opacity:1;stroke:#182904;stroke-width:10.575;stroke-dasharray:none;stroke-opacity:1"
       d="m 183.62274,6.9488756 a 34.799689,79.634026 0.43288039 0 0 -33.9538,71.7338354 34.799689,79.634026 0.43288039 0 0 9.44435,63.512169 79.634026,34.799689 17.388063 0 0 -57.57522,-28.42789 79.634026,34.799689 17.388063 0 0 -79.742018,14.80685 79.634026,34.799689 17.388063 0 0 73.536274,55.84921 79.634026,34.799689 17.388063 0 0 52.449874,4.58778 54.622161,54.622161 0 0 0 9.2915,43.11618 54.622161,54.622161 0 0 0 76.31633,11.96354 54.622161,54.622161 0 0 0 11.96353,-76.31371 54.622161,54.622161 0 0 0 -38.3044,-22.05875 34.799689,79.634026 0.43288039 0 0 11.78697,-51.322027 34.799689,79.634026 0.43288039 0 0 -30.66511,-87.0993472 34.799689,79.634026 0.43288039 0 0 -4.54828,-0.3478402 z" />
    <text
       xml:space="preserve"
       style="font-weight:bold;font-size:59.2816px;font-family:monospace;-inkscape-font-specification:'monospace Bold';fill:#182a04;stroke:#182904;stroke-width:1.112;stroke-miterlimit:8;stroke-dasharray:none;fill-opacity:1"
       x="-76.233429"
       y="293.72122"
       id="text928"
       transform="rotate(-20.84721)"><tspan
         sodipodi:role="line"
         id="tspan926"
         x="-76.233429"
         y="293.72122"
         style="font-size:59.2816px;fill:#182a04;fill-opacity:1;stroke-width:1.112;stroke-dasharray:none">V</tspan></text>
    <text
       xml:space="preserve"
       style="font-weight:bold;font-size:41.4971px;font-family:monospace;-inkscape-font-specification:'monospace Bold';fill:#182a04;fill-opacity:1;stroke:#182904;stroke-width:1.112;stroke-miterlimit:8;stroke-dasharray:none"
       x="52.584454"
       y="292.13763"
       id="text1084"
       transform="rotate(-0.62088244)"><tspan
         sodipodi:role="line"
         id="tspan1082"
         x="52.584454"
         y="292.13763"
         style="font-size:41.4971px;stroke-width:1.112;stroke-dasharray:none;fill:#182a04;fill-opacity:1">estibular</tspan></text>
  </g>
</svg>
