<?xml version="1.0" encoding="UTF-8"?>
<svg xmlns="http://www.w3.org/2000/svg" viewBox="0 0 300 300" width="300" height="300" role="img">
  <g id="layer1" fill="none">
    <path id="ellipse20703" fill="#98cb2b" stroke="#182904" stroke-width="10.575"
      d="m 183.62274,6.9488756 a 34.799689,79.634026 0.43288039 0 0 -33.9538,71.7338354 34.799689,79.634026 0.43288039 0 0 9.44435,63.512169 79.634026,34.799689 17.388063 0 0 -57.57522,-28.42789 79.634026,34.799689 17.388063 0 0 -79.742018,14.80685 79.634026,34.799689 17.388063 0 0 73.536274,55.84921 79.634026,34.799689 17.388063 0 0 52.449874,4.58778 54.622161,54.622161 0 0 0 9.2915,43.11618 54.622161,54.622161 0 0 0 76.31633,11.96354 54.622161,54.622161 0 0 0 11.96353,-76.31371 54.622161,54.622161 0 0 0 -38.3044,-22.05875 34.799689,79.634026 0.43288039 0 0 11.78697,-51.322027 34.799689,79.634026 0.43288039 0 0 -30.66511,-87.0993472 34.799689,79.634026 0.43288039 0 0 -4.54828,-0.3478402 z"/>
    <text xml:space="preserve" style="font-weight:bold;font-size:59.2816px;font-family:monospace;fill:#182a04;stroke:#182904;stroke-width:1.112;stroke-miterlimit:8;"
      x="-76.233429" y="293.72122" transform="rotate(-20.84721)">V</text>
    <text xml:space="preserve" style="font-weight:bold;font-size:41.4971px;font-family:monospace;fill:#182a04;stroke:#182904;stroke-width:1.112;stroke-miterlimit:8;"
      x="52.584454" y="292.13763" transform="rotate(-0.62088244)">estibular</text>
  </g>
</svg>